Coordinates
version=1
nRows=24
nColumns=24
inDegrees=yes

Units are S.I. units (second, meters, Newtons, ...)
Angles are in degrees.

endheader
time	pelvis_tilt	pelvis_list	pelvis_rotation	pelvis_tx	pelvis_ty	pelvis_tz	hip_flexion_r	hip_adduction_r	hip_rotation_r	knee_angle_r	ankle_angle_r	subtalar_angle_r	mtp_angle_r	hip_flexion_l	hip_adduction_l	hip_rotation_l	knee_angle_l	ankle_angle_l	subtalar_angle_l	mtp_angle_l	lumbar_extension	lumbar_bending	lumbar_rotation
      2.00000000	     13.47747137	      3.92423571	     -4.66666086	      0.49379772	      0.94653417	      0.28519312	      4.42482986	     -7.51551998	     -0.85769604	    -63.24213215	     17.42391370	      5.22838717	     48.67593301	     -4.19407357	      8.28476690	     -7.67977846	    -18.57947130	     21.38754959	      4.63550354	     16.66190046	    -29.68703332	     -6.40240467	      6.87591601
      2.00500000	     13.57187846	      3.92999670	     -4.46180541	      0.50009507	      0.94720131	      0.28507481	      4.90262354	     -7.49190345	     -1.10552848	    -62.70380506	     17.74543348	      5.45417387	     48.53626800	     -4.97044895	      8.26776303	     -7.72756010	    -18.12868646	     21.64899940	      5.21974014	     16.60121220	    -29.76197474	     -6.27027881	      6.57778704
      2.01000000	     13.71339781	      3.87677551	     -4.38822853	      0.50623466	      0.94783543	      0.28516675	      5.35057242	     -7.39566067	     -1.25518837	    -62.13673908	     18.15095439	      5.69549122	     47.05953171	     -5.78191965	      8.18675464	     -7.90752780	    -17.71695421	     22.02415075	      5.90660134	     15.54662286	    -29.89171299	     -6.14129255	      6.43721883
      2.01500000	     13.76276801	      3.89575785	     -4.31896513	      0.51223702	      0.94822670	      0.28513283	      5.94557630	     -7.40353013	     -1.42958497	    -61.56520718	     18.37389472	      5.84288358	     47.06150685	     -6.44878318	      8.18660288	     -8.02567843	    -17.35514073	     22.27469645	      6.45179955	     15.53804100	    -29.92230103	     -6.07684751	      6.29496889
      2.02000000	     13.88482238	      3.88305374	     -4.20016221	      0.51831880	      0.94872781	      0.28506037	      6.37305107	     -7.38502081	     -1.64045402	    -60.84529623	     18.60853206	      5.98375629	     47.04197526	     -7.23531358	      8.16207796	     -8.01373881	    -16.93246563	     22.50605857	      6.94291980	     15.48592472	    -30.03187252	     -5.94777756	      6.15985443
      2.02500000	     14.10032636	      3.86605891	     -4.08886393	      0.52454395	      0.94928588	      0.28490290	      6.66875348	     -7.37895380	     -1.86629539	    -60.06576142	     18.80561063	      6.11650919	     46.93766186	     -8.18866066	      8.16055963	     -7.93978638	    -16.39108264	     22.70040913	      7.32987273	     15.36152521	    -30.22918312	     -5.81617496	      6.04520717
      2.03000000	     14.32032839	      3.92277453	     -3.95256759	      0.53079308	      0.94971390	      0.28476694	      6.95187934	     -7.44330917	     -2.07010583	    -59.27717740	     19.12071936	      6.26544591	     46.92710775	     -9.11659456	      8.23478530	     -7.85021392	    -15.88225556	     22.86974504	      7.65530076	     15.29356340	    -30.43377881	     -5.76153339	      5.77785273
      2.03500000	     14.52646319	      3.87518775	     -3.76389766	      0.53714628	      0.95012620	      0.28463259	      7.10882547	     -7.39714331	     -2.36890368	    -58.25587847	     19.51683589	      6.43118321	     46.81906704	    -10.07597217	      8.18536642	     -7.67120702	    -15.33179588	     23.06105882	      7.96047052	     15.22906608	    -30.62441816	     -5.57108484	      5.51308421
      2.04000000	     14.72509580	      3.91676074	     -3.63971007	      0.54327313	      0.95038014	      0.28441919	      7.33670298	     -7.47945541	     -2.61465343	    -57.25940502	     19.78686605	      6.77957486	     46.69308432	    -11.03148931	      8.26535940	     -7.43550396	    -14.71114155	     23.18766187	      8.13025880	     15.10033786	    -30.80878949	     -5.49057356	      5.32261856
      2.04500000	     14.85393568	      3.93781585	     -3.45910118	      0.54939622	      0.95048462	      0.28425143	      7.64020616	     -7.53611619	     -2.91535358	    -56.30025138	     20.00364861	      7.15653581	     46.52331274	    -11.87346577	      8.29998578	     -7.13636084	    -14.19848250	     23.33777781	      8.19509535	     14.97994488	    -30.92676682	     -5.36882563	      5.10021496
      2.05000000	     14.95665468	      3.95847234	     -3.30682069	      0.55547998	      0.95045859	      0.28416927	      7.98214723	     -7.55459175	     -3.15141937	    -55.32276272	     20.16544162	      7.33275021	     46.27834464	    -12.60627853	      8.30889276	     -7.00859999	    -13.80513143	     23.53695938	      8.42323108	     14.86030538	    -31.02254956	     -5.26193191	      4.90400028
      2.05500000	     15.19390492	      3.93457038	     -3.19521539	      0.56169185	      0.95061271	      0.28423735	      8.06524855	     -7.51472464	     -3.34920978	    -54.11534365	     20.24525171	      7.11536568	     46.17169898	    -13.54261348	      8.29062841	     -6.76895146	    -13.31937024	     23.66527062	      8.52683015	     14.74148770	    -31.24473667	     -5.13843678	      4.77584035
      2.06000000	     15.49445546	      3.87607142	     -3.08691247	      0.56790419	      0.95083160	      0.28422619	      8.04449299	     -7.44903236	     -3.55610517	    -52.85114303	     20.47396735	      7.18300866	     45.97371335	    -14.59284089	      8.25058813	     -6.52479807	    -12.73229760	     23.81950095	      8.53772816	     14.59953052	    -31.54322768	     -4.98158474	      4.66914805
      2.06500000	     15.65962248	      3.85512440	     -2.97464912	      0.57404789	      0.95073317	      0.28419280	      8.17689409	     -7.41771784	     -3.74340915	    -51.56631961	     20.63926718	      7.38582876	     45.64339799	    -15.40136281	      8.24189005	     -6.34002990	    -12.35550628	     23.99988249	      8.53749486	     14.43100386	    -31.70019471	     -4.85243548	      4.56113257
      2.07000000	     15.76774775	      3.87724562	     -2.84002679	      0.58017838	      0.95043279	      0.28409907	      8.38974400	     -7.44742612	     -4.01983386	    -50.29635259	     20.71413075	      7.37531424	     45.47602208	    -16.15252591	      8.26994999	     -6.06890458	    -11.94314645	     24.19461591	      8.46751635	     14.31523599	    -31.80124034	     -4.74701106	      4.35299745
      2.07500000	     15.86121401	      3.91576335	     -2.73337161	      0.58618812	      0.95012437	      0.28404218	      8.58618445	     -7.47037549	     -4.16962157	    -48.95262803	     20.72700968	      7.36809987	     45.31139887	    -16.93058044	      8.32773304	     -5.74758318	    -11.40880950	     24.30358618	      8.37799437	     14.10434762	    -31.89056474	     -4.68077489	      4.19489491
      2.08000000	     15.90965938	      3.91134878	     -2.66274070	      0.59214793	      0.94965929	      0.28405021	      8.83516481	     -7.43413081	     -4.25923094	    -47.58304141	     20.64702066	      7.34332537	     45.18302270	    -17.52098722	      8.33061349	     -5.54438223	    -11.17279443	     24.48126600	      8.32957387	     13.94062874	    -31.93929099	     -4.58333762	      4.13168533
      2.08500000	     16.07389192	      3.88850696	     -2.58039015	      0.59824533	      0.94929835	      0.28421105	      8.86284416	     -7.36270752	     -4.35797930	    -46.08251868	     20.68531749	      7.35444703	     44.58959500	    -18.27087179	      8.28659807	     -5.46702257	    -10.91618155	     24.77781126	      8.59492084	     12.82155031	    -32.10654758	     -4.48269705	      3.98209556
      2.09000000	     16.27209802	      3.84654427	     -2.52747264	      0.60444020	      0.94898261	      0.28432809	      8.83440655	     -7.27318418	     -4.46691258	    -44.53678537	     20.56988016	      7.16296980	     44.53858460	    -19.13264444	      8.25400006	     -5.29497247	    -10.48757444	     24.88516468	      8.58977617	     12.65529419	    -32.29008803	     -4.37276627	      3.92795253
      2.09500000	     16.47601069	      3.75851163	     -2.50725603	      0.61071201	      0.94866005	      0.28454548	      8.74254654	     -7.12561512	     -4.57982369	    -42.86031734	     20.35074396	      6.91304862	     44.64132243	    -19.95516870	      8.16779101	     -5.27305503	    -10.15170384	     25.11139842	      8.68880718	     12.40907007	    -32.47727657	     -4.22115818	      3.94665503
      2.10000000	     16.62472564	      3.64139183	     -2.46115204	      0.61689202	      0.94819100	      0.28499364	      8.68601274	     -6.91938001	     -4.69036171	    -41.16169523	     20.04331348	      6.69168658	     44.80903919	    -20.64737401	      8.00788434	     -5.32716526	     -9.97008736	     25.47980595	      8.95221064	     11.60766017	    -32.62186284	     -4.06718805	      3.89487584
      2.10500000	     16.69723851	      3.62001550	     -2.31753785	      0.62291556	      0.94755832	      0.28506864	      8.72655484	     -6.83668659	     -4.86405805	    -39.50600482	     19.69567958	      6.28505531	     44.83943937	    -21.25461224	      7.94245256	     -5.02866839	     -9.76127699	     25.74420053	      8.93278831	     11.45125904	    -32.70425405	     -3.94258208	      3.70949402
      2.11000000	     16.73961356	      3.61377941	     -2.18180829	      0.62883435	      0.94688165	      0.28532651	      8.77688931	     -6.76677320	     -5.00490260	    -37.80987328	     19.41335911	      5.93413381	     44.83366245	    -21.76383047	      7.86792324	     -4.88298468	     -9.66838166	     26.05353577	      9.01736023	     11.32924614	    -32.76689384	     -3.83217351	      3.51227148
      2.11500000	     16.90900858	      3.60639205	     -2.02885431	      0.63483720	      0.94631795	      0.28552318	      8.59849202	     -6.69849196	     -5.20213630	    -35.96435168	     19.14311510	      5.62015967	     44.90242374	    -22.46605102	      7.79364674	     -4.62550390	     -9.47902177	     26.25988074	      8.99720518	     11.01722920	    -32.95956915	     -3.71657102	      3.34295381
